<mxfile host="app.diagrams.net" agent="Mozilla/5.0 (Windows NT 10.0; Win64; x64; rv:128.0) Gecko/20100101 Firefox/128.0" version="24.7.7">
  <diagram name="Page-1" id="iJNGNrnYYWaQe8tbxear">
    <mxGraphModel dx="1434" dy="774" grid="1" gridSize="10" guides="1" tooltips="1" connect="1" arrows="1" fold="1" page="1" pageScale="1" pageWidth="1169" pageHeight="827" math="0" shadow="0">
      <root>
        <mxCell id="0" />
        <mxCell id="1" parent="0" />
        <mxCell id="FwftkRezdxBFgDAwBEby-1" value="tech" style="shape=umlActor;verticalLabelPosition=bottom;verticalAlign=top;html=1;outlineConnect=0;" vertex="1" parent="1">
          <mxGeometry x="11" y="43" width="30" height="60" as="geometry" />
        </mxCell>
        <mxCell id="FwftkRezdxBFgDAwBEby-2" value="admin" style="shape=umlActor;verticalLabelPosition=bottom;verticalAlign=top;html=1;outlineConnect=0;" vertex="1" parent="1">
          <mxGeometry x="34" y="360" width="30" height="60" as="geometry" />
        </mxCell>
        <mxCell id="FwftkRezdxBFgDAwBEby-3" value="&lt;div&gt;client&lt;/div&gt;&lt;div&gt;&lt;br&gt;&lt;/div&gt;" style="shape=umlActor;verticalLabelPosition=bottom;verticalAlign=top;html=1;outlineConnect=0;" vertex="1" parent="1">
          <mxGeometry x="1108" y="201" width="30" height="60" as="geometry" />
        </mxCell>
        <mxCell id="FwftkRezdxBFgDAwBEby-4" value="louer " style="ellipse;whiteSpace=wrap;html=1;" vertex="1" parent="1">
          <mxGeometry x="920" y="110" width="120" height="80" as="geometry" />
        </mxCell>
        <mxCell id="FwftkRezdxBFgDAwBEby-5" value="accessoires" style="ellipse;whiteSpace=wrap;html=1;" vertex="1" parent="1">
          <mxGeometry x="766" y="182" width="120" height="80" as="geometry" />
        </mxCell>
        <mxCell id="FwftkRezdxBFgDAwBEby-6" value="vélo " style="ellipse;whiteSpace=wrap;html=1;" vertex="1" parent="1">
          <mxGeometry x="760" y="50" width="120" height="80" as="geometry" />
        </mxCell>
        <mxCell id="FwftkRezdxBFgDAwBEby-7" value="disponible " style="ellipse;whiteSpace=wrap;html=1;" vertex="1" parent="1">
          <mxGeometry x="950" y="250" width="120" height="80" as="geometry" />
        </mxCell>
        <mxCell id="FwftkRezdxBFgDAwBEby-8" value="" style="endArrow=none;dashed=1;html=1;dashPattern=1 3;strokeWidth=2;rounded=0;exitX=0.5;exitY=0;exitDx=0;exitDy=0;entryX=0.583;entryY=0.988;entryDx=0;entryDy=0;entryPerimeter=0;" edge="1" parent="1" source="FwftkRezdxBFgDAwBEby-7" target="FwftkRezdxBFgDAwBEby-4">
          <mxGeometry width="50" height="50" relative="1" as="geometry">
            <mxPoint x="940" y="240" as="sourcePoint" />
            <mxPoint x="960" y="200" as="targetPoint" />
          </mxGeometry>
        </mxCell>
        <mxCell id="FwftkRezdxBFgDAwBEby-9" value="" style="endArrow=classic;html=1;rounded=0;entryX=0.258;entryY=0.9;entryDx=0;entryDy=0;entryPerimeter=0;exitX=0.967;exitY=0.363;exitDx=0;exitDy=0;exitPerimeter=0;" edge="1" parent="1" source="FwftkRezdxBFgDAwBEby-5" target="FwftkRezdxBFgDAwBEby-4">
          <mxGeometry width="50" height="50" relative="1" as="geometry">
            <mxPoint x="900" y="210" as="sourcePoint" />
            <mxPoint x="930" y="180" as="targetPoint" />
            <Array as="points">
              <mxPoint x="900" y="200" />
            </Array>
          </mxGeometry>
        </mxCell>
        <mxCell id="FwftkRezdxBFgDAwBEby-10" value="" style="endArrow=classic;html=1;rounded=0;" edge="1" parent="1" target="FwftkRezdxBFgDAwBEby-4">
          <mxGeometry width="50" height="50" relative="1" as="geometry">
            <mxPoint x="880" y="80" as="sourcePoint" />
            <mxPoint x="930" y="30" as="targetPoint" />
          </mxGeometry>
        </mxCell>
        <mxCell id="FwftkRezdxBFgDAwBEby-13" value="&amp;nbsp;fiche velo" style="ellipse;whiteSpace=wrap;html=1;" vertex="1" parent="1">
          <mxGeometry x="280" y="130" width="90" height="80" as="geometry" />
        </mxCell>
        <mxCell id="FwftkRezdxBFgDAwBEby-14" value="louer un accessoire" style="ellipse;whiteSpace=wrap;html=1;" vertex="1" parent="1">
          <mxGeometry x="275" y="530" width="95" height="80" as="geometry" />
        </mxCell>
        <mxCell id="FwftkRezdxBFgDAwBEby-15" value="technicien" style="shape=umlActor;verticalLabelPosition=bottom;verticalAlign=top;html=1;outlineConnect=0;" vertex="1" parent="1">
          <mxGeometry x="130" y="620" width="30" height="60" as="geometry" />
        </mxCell>
        <mxCell id="FwftkRezdxBFgDAwBEby-16" value="accessoires" style="text;html=1;align=center;verticalAlign=middle;whiteSpace=wrap;rounded=0;" vertex="1" parent="1">
          <mxGeometry x="115" y="570" width="60" height="30" as="geometry" />
        </mxCell>
        <mxCell id="FwftkRezdxBFgDAwBEby-17" value="editer un accessoir" style="ellipse;whiteSpace=wrap;html=1;" vertex="1" parent="1">
          <mxGeometry x="550" y="670" width="120" height="80" as="geometry" />
        </mxCell>
        <mxCell id="FwftkRezdxBFgDAwBEby-18" value="" style="ellipse;whiteSpace=wrap;html=1;" vertex="1" parent="1">
          <mxGeometry x="270" y="630" width="120" height="80" as="geometry" />
        </mxCell>
        <mxCell id="FwftkRezdxBFgDAwBEby-20" value="admin" style="shape=umlActor;verticalLabelPosition=bottom;verticalAlign=top;html=1;outlineConnect=0;" vertex="1" parent="1">
          <mxGeometry x="1050" y="660" width="30" height="60" as="geometry" />
        </mxCell>
        <mxCell id="FwftkRezdxBFgDAwBEby-22" value="" style="endArrow=classic;html=1;rounded=0;" edge="1" parent="1">
          <mxGeometry width="50" height="50" relative="1" as="geometry">
            <mxPoint x="1030" y="700" as="sourcePoint" />
            <mxPoint x="670" y="700" as="targetPoint" />
          </mxGeometry>
        </mxCell>
        <mxCell id="FwftkRezdxBFgDAwBEby-24" value="reparer vélo " style="ellipse;whiteSpace=wrap;html=1;" vertex="1" parent="1">
          <mxGeometry x="270" y="220" width="90" height="80" as="geometry" />
        </mxCell>
        <mxCell id="FwftkRezdxBFgDAwBEby-25" value="louer" style="ellipse;whiteSpace=wrap;html=1;" vertex="1" parent="1">
          <mxGeometry x="610" width="90" height="80" as="geometry" />
        </mxCell>
        <mxCell id="FwftkRezdxBFgDAwBEby-26" value="editer fiche velo" style="ellipse;whiteSpace=wrap;html=1;" vertex="1" parent="1">
          <mxGeometry x="300" y="330" width="90" height="80" as="geometry" />
        </mxCell>
        <mxCell id="FwftkRezdxBFgDAwBEby-28" value="authentifier" style="ellipse;whiteSpace=wrap;html=1;" vertex="1" parent="1">
          <mxGeometry x="140" y="150" width="90" height="80" as="geometry" />
        </mxCell>
        <mxCell id="FwftkRezdxBFgDAwBEby-31" value="" style="endArrow=classic;html=1;rounded=0;entryX=0.689;entryY=0.013;entryDx=0;entryDy=0;entryPerimeter=0;exitX=0.044;exitY=0.75;exitDx=0;exitDy=0;exitPerimeter=0;" edge="1" parent="1">
          <mxGeometry width="50" height="50" relative="1" as="geometry">
            <mxPoint x="584.95" y="60.980000000000004" as="sourcePoint" />
            <mxPoint x="508" y="119.01999999999997" as="targetPoint" />
            <Array as="points">
              <mxPoint x="525.99" y="100.98" />
            </Array>
          </mxGeometry>
        </mxCell>
        <mxCell id="FwftkRezdxBFgDAwBEby-32" value="" style="endArrow=classic;html=1;rounded=0;" edge="1" parent="1">
          <mxGeometry width="50" height="50" relative="1" as="geometry">
            <mxPoint x="324.16249294313866" y="444.96681672767704" as="sourcePoint" />
            <mxPoint x="203" y="420" as="targetPoint" />
          </mxGeometry>
        </mxCell>
        <mxCell id="FwftkRezdxBFgDAwBEby-33" value="" style="endArrow=classic;html=1;rounded=0;" edge="1" parent="1">
          <mxGeometry width="50" height="50" relative="1" as="geometry">
            <mxPoint x="161.35437089588686" y="148.437661233595" as="sourcePoint" />
            <mxPoint x="70" y="120" as="targetPoint" />
            <Array as="points" />
          </mxGeometry>
        </mxCell>
        <mxCell id="FwftkRezdxBFgDAwBEby-34" value="" style="endArrow=classic;html=1;rounded=0;" edge="1" parent="1">
          <mxGeometry width="50" height="50" relative="1" as="geometry">
            <mxPoint x="270" y="258" as="sourcePoint" />
            <mxPoint x="200" y="230" as="targetPoint" />
            <Array as="points">
              <mxPoint x="230" y="258" />
            </Array>
          </mxGeometry>
        </mxCell>
        <mxCell id="FwftkRezdxBFgDAwBEby-35" value="" style="endArrow=classic;html=1;rounded=0;exitX=0;exitY=0.5;exitDx=0;exitDy=0;" edge="1" parent="1" source="FwftkRezdxBFgDAwBEby-26">
          <mxGeometry width="50" height="50" relative="1" as="geometry">
            <mxPoint x="280" y="400" as="sourcePoint" />
            <mxPoint x="210" y="390" as="targetPoint" />
            <Array as="points" />
          </mxGeometry>
        </mxCell>
        <mxCell id="FwftkRezdxBFgDAwBEby-36" value="" style="endArrow=classic;html=1;rounded=0;entryX=1.011;entryY=0.425;entryDx=0;entryDy=0;entryPerimeter=0;" edge="1" parent="1" target="FwftkRezdxBFgDAwBEby-28">
          <mxGeometry width="50" height="50" relative="1" as="geometry">
            <mxPoint x="270" y="175" as="sourcePoint" />
            <mxPoint x="230" y="165" as="targetPoint" />
            <Array as="points" />
          </mxGeometry>
        </mxCell>
        <mxCell id="FwftkRezdxBFgDAwBEby-37" value="fiche peiece " style="ellipse;whiteSpace=wrap;html=1;" vertex="1" parent="1">
          <mxGeometry x="330" y="414" width="90" height="80" as="geometry" />
        </mxCell>
        <mxCell id="FwftkRezdxBFgDAwBEby-38" value="cretation contrat" style="ellipse;whiteSpace=wrap;html=1;" vertex="1" parent="1">
          <mxGeometry x="150" y="260" width="90" height="80" as="geometry" />
        </mxCell>
        <mxCell id="FwftkRezdxBFgDAwBEby-39" value="ajouter accessoire " style="ellipse;whiteSpace=wrap;html=1;" vertex="1" parent="1">
          <mxGeometry x="540" y="494" width="120" height="80" as="geometry" />
        </mxCell>
        <mxCell id="FwftkRezdxBFgDAwBEby-40" value="suprimer un accessoire " style="ellipse;whiteSpace=wrap;html=1;" vertex="1" parent="1">
          <mxGeometry x="540" y="580" width="120" height="80" as="geometry" />
        </mxCell>
        <mxCell id="FwftkRezdxBFgDAwBEby-41" value="authentifier" style="ellipse;whiteSpace=wrap;html=1;" vertex="1" parent="1">
          <mxGeometry x="110" y="350" width="90" height="80" as="geometry" />
        </mxCell>
        <mxCell id="FwftkRezdxBFgDAwBEby-42" value="" style="endArrow=classic;html=1;rounded=0;exitX=0;exitY=0.5;exitDx=0;exitDy=0;entryX=0.056;entryY=0.75;entryDx=0;entryDy=0;entryPerimeter=0;" edge="1" parent="1" target="FwftkRezdxBFgDAwBEby-28">
          <mxGeometry width="50" height="50" relative="1" as="geometry">
            <mxPoint x="150" y="270" as="sourcePoint" />
            <mxPoint x="60" y="290" as="targetPoint" />
            <Array as="points">
              <mxPoint x="150" y="260" />
            </Array>
          </mxGeometry>
        </mxCell>
        <mxCell id="FwftkRezdxBFgDAwBEby-43" value="vélo disponible" style="ellipse;whiteSpace=wrap;html=1;" vertex="1" parent="1">
          <mxGeometry x="430" y="103" width="90" height="80" as="geometry" />
        </mxCell>
        <mxCell id="FwftkRezdxBFgDAwBEby-44" value="" style="endArrow=none;dashed=1;html=1;dashPattern=1 3;strokeWidth=2;rounded=0;entryX=0;entryY=0.5;entryDx=0;entryDy=0;" edge="1" parent="1" target="FwftkRezdxBFgDAwBEby-43">
          <mxGeometry width="50" height="50" relative="1" as="geometry">
            <mxPoint x="371" y="170" as="sourcePoint" />
            <mxPoint x="430" y="167" as="targetPoint" />
          </mxGeometry>
        </mxCell>
        <mxCell id="FwftkRezdxBFgDAwBEby-46" value="fiche piéce " style="ellipse;whiteSpace=wrap;html=1;" vertex="1" parent="1">
          <mxGeometry x="450" y="260" width="90" height="80" as="geometry" />
        </mxCell>
      </root>
    </mxGraphModel>
  </diagram>
</mxfile>
